<svg width="1591" height="936" viewBox="0 0 1591 936" fill="none" xmlns="http://www.w3.org/2000/svg">
<g filter="url(#filter0_f_275_4803)">
<mask id="mask0_275_4803" style="mask-type:alpha" maskUnits="userSpaceOnUse" x="50" y="50" width="1491" height="836">
<path d="M924.396 521.411C559.944 587.84 363.524 844.266 129.56 885.146C119.182 741.758 90.9168 436.028 60.8815 360.215C23.3374 265.449 92.0157 218.066 129.56 183.225C167.104 148.385 341.547 107.505 425.792 116.796C510.037 126.087 902.419 43.8634 1223.83 50.3669C1545.25 56.8705 1572.72 139.094 1519.61 218.066C1466.5 297.038 1288.85 454.982 924.396 521.411Z" fill="url(#paint0_linear_275_4803)"/>
</mask>
<g mask="url(#mask0_275_4803)">
<path d="M924.396 521.411C559.944 587.84 363.524 844.266 129.56 885.146C119.182 741.758 90.9168 436.028 60.8815 360.215C23.3374 265.449 92.0157 218.066 129.56 183.225C167.104 148.385 341.547 107.505 425.792 116.796C510.037 126.087 902.419 43.8634 1223.83 50.3669C1545.25 56.8705 1572.72 139.094 1519.61 218.066C1466.5 297.038 1288.85 454.982 924.396 521.411Z" fill="#F9A8D4"/>
<ellipse cx="288.746" cy="813.615" rx="507.219" ry="430.114" fill="url(#paint1_radial_275_4803)"/>
<circle cx="461.535" cy="410.441" r="220.166" fill="url(#paint2_radial_275_4803)"/>
<circle cx="837" cy="232.146" r="336" fill="url(#paint3_radial_275_4803)" fill-opacity="0.7"/>
<ellipse cx="705.39" cy="499.158" rx="411.999" ry="349.758" fill="url(#paint4_radial_275_4803)"/>
</g>
</g>
<defs>
<filter id="filter0_f_275_4803" x="0" y="0" width="1591" height="935.146" filterUnits="userSpaceOnUse" color-interpolation-filters="sRGB">
<feFlood flood-opacity="0" result="BackgroundImageFix"/>
<feBlend mode="normal" in="SourceGraphic" in2="BackgroundImageFix" result="shape"/>
<feGaussianBlur stdDeviation="25" result="effect1_foregroundBlur_275_4803"/>
</filter>
<linearGradient id="paint0_linear_275_4803" x1="150.329" y1="885.146" x2="1946" y2="885.146" gradientUnits="userSpaceOnUse">
<stop stop-color="#F472B6"/>
<stop offset="1" stop-color="#F472B6" stop-opacity="0"/>
</linearGradient>
<radialGradient id="paint1_radial_275_4803" cx="0" cy="0" r="1" gradientUnits="userSpaceOnUse" gradientTransform="translate(288.746 813.615) rotate(90) scale(430.114 507.219)">
<stop stop-color="#FBCFE8"/>
<stop offset="1" stop-color="#F9A8D4" stop-opacity="0"/>
</radialGradient>
<radialGradient id="paint2_radial_275_4803" cx="0" cy="0" r="1" gradientUnits="userSpaceOnUse" gradientTransform="translate(461.535 410.441) rotate(90) scale(220.166)">
<stop stop-color="#F472B6"/>
<stop offset="1" stop-color="#F472B6" stop-opacity="0"/>
</radialGradient>
<radialGradient id="paint3_radial_275_4803" cx="0" cy="0" r="1" gradientUnits="userSpaceOnUse" gradientTransform="translate(837 232.146) rotate(90) scale(336)">
<stop stop-color="#FDE047"/>
<stop offset="1" stop-color="#F472B6" stop-opacity="0"/>
</radialGradient>
<radialGradient id="paint4_radial_275_4803" cx="0" cy="0" r="1" gradientUnits="userSpaceOnUse" gradientTransform="translate(705.39 499.158) rotate(90) scale(349.758 411.999)">
<stop stop-color="#D8B4FE"/>
<stop offset="1" stop-color="#E9D5FF" stop-opacity="0"/>
</radialGradient>
</defs>
</svg>
